<?xml version="1.0" encoding="UTF-8" standalone="no"?>
<svg
   version="1.0"
   width="360.000000pt"
   height="360.000000pt"
   viewBox="0 0 360.000000 360.000000"
   preserveAspectRatio="xMidYMid meet"
   id="svg16"
   sodipodi:docname="favicon (3).svg"
   inkscape:version="1.1.1 (3bf5ae0d25, 2021-09-20)"
   xmlns:inkscape="http://www.inkscape.org/namespaces/inkscape"
   xmlns:sodipodi="http://sodipodi.sourceforge.net/DTD/sodipodi-0.dtd"
   xmlns="http://www.w3.org/2000/svg"
   xmlns:svg="http://www.w3.org/2000/svg">
  <defs
     id="defs20" />
  <sodipodi:namedview
     id="namedview18"
     pagecolor="#ffffff"
     bordercolor="#666666"
     borderopacity="1.0"
     inkscape:pageshadow="2"
     inkscape:pageopacity="0.0"
     inkscape:pagecheckerboard="0"
     inkscape:document-units="pt"
     showgrid="false"
     inkscape:zoom="0.86666667"
     inkscape:cx="443.65385"
     inkscape:cy="194.42308"
     inkscape:window-width="1920"
     inkscape:window-height="1017"
     inkscape:window-x="-8"
     inkscape:window-y="-8"
     inkscape:window-maximized="1"
     inkscape:current-layer="svg16" />
  <g
     transform="translate(0.000000,360.000000) scale(0.100000,-0.100000)"
     fill="#000000"
     stroke="none"
     id="g14">
    <path
       id="rect196"
       style="fill:#ffcf12;fill-opacity:1;stroke-width:0.740575"
       d="M 157.4668 69.466797 C 156.2668 69.466797 123.99909 85.200391 85.732422 104.40039 L 16 139.33398 L 16 148 L 16 156.66602 L 26 161.33398 C 31.466667 163.86732 35.732943 166.53398 35.599609 167.33398 C 35.332943 168.00065 29.467057 171.60065 22.400391 175.33398 C 15.333724 178.93398 9.0660156 182.40026 8.6660156 182.93359 C 8.1326823 183.46693 7.7324219 187.7332 7.7324219 192.5332 C 7.7324219 199.46654 8.2665365 201.73281 10.533203 204.13281 C 14.666536 208.53281 13.99987 211.59948 8.5332031 214.13281 C 5.8665365 215.33281 3.1998698 217.86628 2.5332031 219.59961 C 0.93320313 223.73294 0.93320313 250.80026 2.5332031 254.93359 C 4.2665365 259.60026 31.199349 273.06641 34.666016 271.06641 C 37.466016 269.19974 40 271.19974 40 275.06641 C 40 277.86641 47.466016 294.00052 50.666016 297.86719 C 64.132682 314.80052 73.733854 320 91.867188 320 C 98.533854 320 105.06706 319.46745 106.40039 318.80078 C 116.26706 313.73411 112.2668 312.4 159.4668 336 C 195.33346 354 203.33398 357.60039 205.33398 356.40039 C 208.13398 354.53372 210.66602 356.53424 210.66602 360.26758 C 210.66602 366.66758 223.20013 387.33268 231.4668 394.66602 C 240.2668 402.26602 249.06602 405.33398 262.66602 405.33398 C 272.13268 405.33398 275.99935 404.66654 280.66602 402.5332 L 286.80078 399.59961 L 297.73242 405.19922 C 307.19909 409.99922 309.86732 410.66602 317.33398 410.66602 L 326 410.66602 L 401.06641 373.06641 C 460.93307 343.19974 476.53346 334.93372 477.4668 332.40039 C 478.13346 330.53372 478.66602 322.40091 478.66602 314.26758 C 478.66602 296.66758 478.00065 295.33281 467.33398 290.13281 L 460 286.5332 L 460 276.5332 C 460 270.79987 459.46602 266.66602 458.66602 266.66602 C 457.86602 266.66602 449.99922 270.26745 441.19922 274.80078 C 432.26589 279.20078 424.53333 282.39909 424 281.73242 C 418.66667 275.99909 412 267.59987 412 266.5332 C 412 265.86654 419.2 261.73398 428 257.33398 C 436.8 252.93398 444 248.9332 444 248.5332 C 444 247.06654 430.93242 231.46602 425.73242 226.66602 C 420.39909 221.73268 412.66732 216 411.33398 216 C 410.00065 216 386.13372 199.73424 382.40039 196.26758 C 379.46706 193.60091 378.66602 191.60013 378.66602 187.4668 C 378.66602 182.2668 378.26758 181.86693 372.26758 178.93359 C 368.80091 177.33359 364.93385 176 363.86719 176 C 362.66719 176 358.00065 172.00026 353.33398 166.93359 C 348.66732 162.00026 338.80065 151.73333 331.33398 144 L 318 130.13281 L 273.33398 107.73242 C 248.80065 95.465755 227.99974 85.333984 227.06641 85.333984 C 226.13307 85.333984 214.53398 90.667318 201.33398 97.333984 C 188.13398 103.86732 176.40065 109.33398 175.33398 109.33398 C 172.00065 109.33398 173.06576 107.4668 177.73242 105.4668 C 185.06576 102.2668 189.33398 98.666276 189.33398 95.599609 C 189.33398 91.599609 174.26667 76.799349 166 72.666016 C 162.4 70.799349 158.53346 69.333464 157.4668 69.466797 z M 316 150.80078 C 318.66667 150.66745 324.26576 155.73333 343.73242 176 C 358.26576 191.06667 367.99961 202.13255 367.59961 203.19922 C 367.19961 204.13255 345.06706 215.86589 318.40039 229.19922 C 291.86706 242.53255 266.66706 255.33294 262.40039 257.59961 C 255.73372 261.33294 254.66654 261.60052 252.5332 259.86719 C 249.99987 257.86719 222.66602 202.53294 222.66602 199.59961 C 222.66602 198.53294 223.59935 196.93333 224.66602 196 C 225.86602 195.06667 245.99909 184.53268 269.73242 172.66602 C 293.33242 160.66602 314.13333 150.93411 316 150.80078 z M 153.06641 182.66602 C 155.06641 182.66602 190.93294 201.20013 193.59961 203.4668 C 194.93294 204.80013 196 206.26693 196 206.93359 C 196 207.60026 200.2668 216.80065 205.4668 227.33398 C 216.00013 248.66732 216.66576 252.93372 209.73242 252.40039 C 207.33242 252.13372 191.46706 244.93372 174.40039 236.40039 C 139.46706 218.80039 141.73398 220.93268 145.33398 206.66602 C 146.13398 203.33268 147.33385 198.26732 147.86719 195.33398 C 148.53385 192.40065 149.60039 188.40091 150.40039 186.26758 C 151.33372 184.26758 152.39974 182.66602 153.06641 182.66602 z M 62.800781 244 C 67.867448 244 70.267448 244.80039 74.800781 248.40039 C 87.067448 257.73372 94.666016 272.40078 94.666016 286.80078 C 94.666016 296.26745 92.134245 301.73398 86.267578 305.33398 C 80.667578 308.80065 77.866797 308.66654 69.466797 304.5332 C 56.133464 297.86654 46.666016 281.19987 46.666016 264.5332 C 46.666016 255.19987 48.799609 249.46615 53.599609 246.13281 C 55.332943 244.93281 59.334115 244 62.800781 244 z M 336 301.73242 C 339.73333 301.99909 352 316.26758 352 320.26758 C 352 323.60091 320.66589 339.33242 317.19922 337.73242 C 313.46589 335.99909 302.40026 321.46693 302.93359 318.93359 C 303.20026 317.60026 309.06667 313.59974 318 309.06641 C 326.4 304.66641 334 301.46576 336 301.73242 z M 231.18359 329.20898 C 235.86198 328.83789 241.13346 330.39909 245.4668 333.73242 C 257.8668 343.06576 265.33398 357.73372 265.33398 372.40039 C 265.33398 387.33372 256.80078 395.46667 244.80078 392 C 230.80078 388.13333 218.53294 370.26758 217.59961 352.26758 C 216.93294 341.33424 218.66576 336 223.73242 332 C 225.78242 330.35 228.37656 329.43164 231.18359 329.20898 z "
       transform="matrix(7.5,0,0,-7.5,0,3600)" />
  </g>
</svg>
